<mxfile host="app.diagrams.net" agent="Mozilla/5.0 (Macintosh; Intel Mac OS X 10_15_7) AppleWebKit/537.36 (KHTML, like Gecko) Chrome/130.0.0.0 Safari/537.36" version="24.8.4">
  <diagram name="AWS Glue Crawler Architecture" id="Xi__b_-YAn6Yx0ZEe0jn">
    <mxGraphModel dx="1570" dy="1025" grid="1" gridSize="10" guides="1" tooltips="1" connect="1" arrows="1" fold="1" page="1" pageScale="1" pageWidth="850" pageHeight="1100" math="0" shadow="0">
      <root>
        <mxCell id="0" />
        <mxCell id="1" parent="0" />
        <object label="Amazon S3&#xa;company-connect-data" id="t2zCd8x_onf9Ihnw5szz-24">
          <mxCell style="outlineConnect=0;fontColor=#232F3E;gradientColor=#60A337;gradientDirection=north;fillColor=#277116;strokeColor=#ffffff;dashed=0;verticalLabelPosition=bottom;verticalAlign=top;align=center;html=1;fontSize=12;fontStyle=0;aspect=fixed;shape=mxgraph.aws4.resourceIcon;resIcon=mxgraph.aws4.s3;" vertex="1" parent="1">
            <mxGeometry x="180" y="320" width="78" height="78" as="geometry" />
          </mxCell>
        </object>
        <object label="instance-alias-1/" id="t2zCd8x_onf9Ihnw5szz-25">
          <mxCell style="shape=note;whiteSpace=wrap;html=1;backgroundOutline=1;darkOpacity=0.05;fillColor=#f5f5f5;strokeColor=#666666;" vertex="1" parent="1">
            <mxGeometry x="300" y="290" width="100" height="60" as="geometry" />
          </mxCell>
        </object>
        <mxCell id="t2zCd8x_onf9Ihnw5szz-39" style="edgeStyle=orthogonalEdgeStyle;rounded=0;orthogonalLoop=1;jettySize=auto;html=1;exitX=0;exitY=0;exitDx=100;exitDy=30;exitPerimeter=0;" edge="1" parent="1" source="t2zCd8x_onf9Ihnw5szz-26" target="t2zCd8x_onf9Ihnw5szz-28">
          <mxGeometry relative="1" as="geometry">
            <mxPoint x="550" y="350" as="targetPoint" />
          </mxGeometry>
        </mxCell>
        <object label="instance-alias-2/" id="t2zCd8x_onf9Ihnw5szz-26">
          <mxCell style="shape=note;whiteSpace=wrap;html=1;backgroundOutline=1;darkOpacity=0.05;fillColor=#f5f5f5;strokeColor=#666666;" vertex="1" parent="1">
            <mxGeometry x="300" y="370" width="100" height="60" as="geometry" />
          </mxCell>
        </object>
        <object label="Glue Crawler&#xa;(Scans all instances)" id="t2zCd8x_onf9Ihnw5szz-28">
          <mxCell style="outlineConnect=0;fontColor=#232F3E;gradientColor=#945DF2;gradientDirection=north;fillColor=#5A30B5;strokeColor=#ffffff;dashed=0;verticalLabelPosition=bottom;verticalAlign=top;align=center;html=1;fontSize=12;fontStyle=0;aspect=fixed;shape=mxgraph.aws4.resourceIcon;resIcon=mxgraph.aws4.glue;" vertex="1" parent="1">
            <mxGeometry x="560" y="311" width="78" height="78" as="geometry" />
          </mxCell>
        </object>
        <object label="Glue Database" id="t2zCd8x_onf9Ihnw5szz-29">
          <mxCell style="outlineConnect=0;fontColor=#232F3E;gradientColor=#945DF2;gradientDirection=north;fillColor=#5A30B5;strokeColor=#ffffff;dashed=0;verticalLabelPosition=bottom;verticalAlign=top;align=center;html=1;fontSize=12;fontStyle=0;aspect=fixed;shape=mxgraph.aws4.resourceIcon;resIcon=mxgraph.aws4.glue;" vertex="1" parent="1">
            <mxGeometry x="820" y="310" width="88" height="88" as="geometry" />
          </mxCell>
        </object>
        <object label="instance1_table" id="t2zCd8x_onf9Ihnw5szz-30">
          <mxCell style="shape=table;startSize=0;container=1;collapsible=1;childLayout=tableLayout;fixedRows=1;rowLines=0;fontStyle=1;align=center;resizeLast=1;" vertex="1" parent="1">
            <mxGeometry x="960" y="284" width="120" height="50" as="geometry" />
          </mxCell>
        </object>
        <object label="instance2_table" id="t2zCd8x_onf9Ihnw5szz-31">
          <mxCell style="shape=table;startSize=30;container=1;collapsible=1;childLayout=tableLayout;fixedRows=1;rowLines=0;fontStyle=1;align=center;resizeLast=1;" vertex="1" parent="1">
            <mxGeometry x="990" y="334" width="120" height="50" as="geometry" />
          </mxCell>
        </object>
        <object label="IAM Role" id="t2zCd8x_onf9Ihnw5szz-32">
          <mxCell style="outlineConnect=0;fontColor=#232F3E;gradientColor=#F54749;gradientDirection=north;fillColor=#C7131F;strokeColor=#ffffff;dashed=0;verticalLabelPosition=bottom;verticalAlign=top;align=center;html=1;fontSize=12;fontStyle=0;aspect=fixed;shape=mxgraph.aws4.resourceIcon;resIcon=mxgraph.aws4.identity_and_access_management;" vertex="1" parent="1">
            <mxGeometry x="640" y="500" width="78" height="78" as="geometry" />
          </mxCell>
        </object>
        <mxCell id="t2zCd8x_onf9Ihnw5szz-33" style="edgeStyle=orthogonalEdgeStyle;rounded=0;orthogonalLoop=1;jettySize=auto;html=1;startArrow=none;startFill=0;endArrow=classic;endFill=1;strokeColor=#545B64;" edge="1" parent="1" source="t2zCd8x_onf9Ihnw5szz-24" target="t2zCd8x_onf9Ihnw5szz-25">
          <mxGeometry relative="1" as="geometry" />
        </mxCell>
        <mxCell id="t2zCd8x_onf9Ihnw5szz-34" style="edgeStyle=orthogonalEdgeStyle;rounded=0;orthogonalLoop=1;jettySize=auto;html=1;startArrow=none;startFill=0;endArrow=classic;endFill=1;strokeColor=#545B64;" edge="1" parent="1" source="t2zCd8x_onf9Ihnw5szz-24" target="t2zCd8x_onf9Ihnw5szz-26">
          <mxGeometry relative="1" as="geometry" />
        </mxCell>
        <mxCell id="t2zCd8x_onf9Ihnw5szz-35" style="edgeStyle=orthogonalEdgeStyle;rounded=0;orthogonalLoop=1;jettySize=auto;html=1;startArrow=none;startFill=0;endArrow=classic;endFill=1;strokeColor=#545B64;exitX=1;exitY=1;exitDx=0;exitDy=0;exitPerimeter=0;" edge="1" parent="1" source="t2zCd8x_onf9Ihnw5szz-25" target="t2zCd8x_onf9Ihnw5szz-28">
          <mxGeometry relative="1" as="geometry">
            <mxPoint x="538" y="359" as="sourcePoint" />
          </mxGeometry>
        </mxCell>
        <mxCell id="t2zCd8x_onf9Ihnw5szz-36" style="edgeStyle=orthogonalEdgeStyle;rounded=0;orthogonalLoop=1;jettySize=auto;html=1;startArrow=none;startFill=0;endArrow=classic;endFill=1;strokeColor=#545B64;" edge="1" parent="1" source="t2zCd8x_onf9Ihnw5szz-28" target="t2zCd8x_onf9Ihnw5szz-29">
          <mxGeometry relative="1" as="geometry" />
        </mxCell>
        <mxCell id="t2zCd8x_onf9Ihnw5szz-37" style="edgeStyle=orthogonalEdgeStyle;rounded=0;orthogonalLoop=1;jettySize=auto;html=1;startArrow=none;startFill=0;endArrow=classic;endFill=1;strokeColor=#545B64;" edge="1" parent="1" source="t2zCd8x_onf9Ihnw5szz-32" target="t2zCd8x_onf9Ihnw5szz-28">
          <mxGeometry relative="1" as="geometry" />
        </mxCell>
        <object label="Creates tables per instance" id="t2zCd8x_onf9Ihnw5szz-38">
          <mxCell style="text;html=1;strokeColor=none;fillColor=none;align=center;verticalAlign=middle;whiteSpace=wrap;rounded=0;" vertex="1" parent="1">
            <mxGeometry x="710" y="340" width="100" height="20" as="geometry" />
          </mxCell>
        </object>
        <mxCell id="t2zCd8x_onf9Ihnw5szz-40" value="1" style="ellipse;whiteSpace=wrap;html=1;aspect=fixed;rotation=0;gradientColor=#223548;strokeColor=none;gradientDirection=east;fillColor=#5b738b;rounded=0;pointerEvents=0;fontFamily=Helvetica;fontSize=16;fontColor=#FFFFFF;spacingTop=4;spacingBottom=4;spacingLeft=4;spacingRight=4;points=[];fontStyle=1" vertex="1" parent="1">
          <mxGeometry x="228" y="270" width="30" height="30" as="geometry" />
        </mxCell>
        <mxCell id="t2zCd8x_onf9Ihnw5szz-41" value="2" style="ellipse;whiteSpace=wrap;html=1;aspect=fixed;rotation=0;gradientColor=#223548;strokeColor=none;gradientDirection=east;fillColor=#5b738b;rounded=0;pointerEvents=0;fontFamily=Helvetica;fontSize=16;fontColor=#FFFFFF;spacingTop=4;spacingBottom=4;spacingLeft=4;spacingRight=4;points=[];fontStyle=1" vertex="1" parent="1">
          <mxGeometry x="580" y="270" width="30" height="30" as="geometry" />
        </mxCell>
        <mxCell id="t2zCd8x_onf9Ihnw5szz-42" value="3" style="ellipse;whiteSpace=wrap;html=1;aspect=fixed;rotation=0;gradientColor=#223548;strokeColor=none;gradientDirection=east;fillColor=#5b738b;rounded=0;pointerEvents=0;fontFamily=Helvetica;fontSize=16;fontColor=#FFFFFF;spacingTop=4;spacingBottom=4;spacingLeft=4;spacingRight=4;points=[];fontStyle=1" vertex="1" parent="1">
          <mxGeometry x="849" y="240" width="30" height="30" as="geometry" />
        </mxCell>
        <mxCell id="t2zCd8x_onf9Ihnw5szz-48" value="4" style="ellipse;whiteSpace=wrap;html=1;aspect=fixed;rotation=0;gradientColor=#223548;strokeColor=none;gradientDirection=east;fillColor=#5b738b;rounded=0;pointerEvents=0;fontFamily=Helvetica;fontSize=16;fontColor=#FFFFFF;spacingTop=4;spacingBottom=4;spacingLeft=4;spacingRight=4;points=[];fontStyle=1" vertex="1" parent="1">
          <mxGeometry x="1010" y="220" width="30" height="30" as="geometry" />
        </mxCell>
        <mxCell id="t2zCd8x_onf9Ihnw5szz-50" value="1" style="ellipse;whiteSpace=wrap;html=1;aspect=fixed;rotation=0;gradientColor=#223548;strokeColor=none;gradientDirection=east;fillColor=#5b738b;rounded=0;pointerEvents=0;fontFamily=Helvetica;fontSize=16;fontColor=#FFFFFF;spacingTop=4;spacingBottom=4;spacingLeft=4;spacingRight=4;points=[];fontStyle=1" vertex="1" parent="1">
          <mxGeometry x="1090" y="520" width="30" height="30" as="geometry" />
        </mxCell>
        <mxCell id="t2zCd8x_onf9Ihnw5szz-51" value="Text" style="text;html=1;align=center;verticalAlign=middle;resizable=0;points=[];autosize=1;strokeColor=none;fillColor=none;" vertex="1" parent="1">
          <mxGeometry x="1135" y="518" width="50" height="30" as="geometry" />
        </mxCell>
        <mxCell id="t2zCd8x_onf9Ihnw5szz-52" value="2" style="ellipse;whiteSpace=wrap;html=1;aspect=fixed;rotation=0;gradientColor=#223548;strokeColor=none;gradientDirection=east;fillColor=#5b738b;rounded=0;pointerEvents=0;fontFamily=Helvetica;fontSize=16;fontColor=#FFFFFF;spacingTop=4;spacingBottom=4;spacingLeft=4;spacingRight=4;points=[];fontStyle=1" vertex="1" parent="1">
          <mxGeometry x="1090" y="578" width="30" height="30" as="geometry" />
        </mxCell>
        <mxCell id="t2zCd8x_onf9Ihnw5szz-53" value="Text" style="text;html=1;align=center;verticalAlign=middle;resizable=0;points=[];autosize=1;strokeColor=none;fillColor=none;" vertex="1" parent="1">
          <mxGeometry x="1135" y="578" width="50" height="30" as="geometry" />
        </mxCell>
        <mxCell id="t2zCd8x_onf9Ihnw5szz-54" value="3" style="ellipse;whiteSpace=wrap;html=1;aspect=fixed;rotation=0;gradientColor=#223548;strokeColor=none;gradientDirection=east;fillColor=#5b738b;rounded=0;pointerEvents=0;fontFamily=Helvetica;fontSize=16;fontColor=#FFFFFF;spacingTop=4;spacingBottom=4;spacingLeft=4;spacingRight=4;points=[];fontStyle=1" vertex="1" parent="1">
          <mxGeometry x="1090" y="640" width="30" height="30" as="geometry" />
        </mxCell>
        <mxCell id="t2zCd8x_onf9Ihnw5szz-55" value="Text" style="text;html=1;align=center;verticalAlign=middle;resizable=0;points=[];autosize=1;strokeColor=none;fillColor=none;" vertex="1" parent="1">
          <mxGeometry x="1140" y="640" width="50" height="30" as="geometry" />
        </mxCell>
        <mxCell id="t2zCd8x_onf9Ihnw5szz-56" value="4" style="ellipse;whiteSpace=wrap;html=1;aspect=fixed;rotation=0;gradientColor=#223548;strokeColor=none;gradientDirection=east;fillColor=#5b738b;rounded=0;pointerEvents=0;fontFamily=Helvetica;fontSize=16;fontColor=#FFFFFF;spacingTop=4;spacingBottom=4;spacingLeft=4;spacingRight=4;points=[];fontStyle=1" vertex="1" parent="1">
          <mxGeometry x="1090" y="710" width="30" height="30" as="geometry" />
        </mxCell>
        <mxCell id="t2zCd8x_onf9Ihnw5szz-57" value="Text" style="text;html=1;align=center;verticalAlign=middle;resizable=0;points=[];autosize=1;strokeColor=none;fillColor=none;" vertex="1" parent="1">
          <mxGeometry x="1130" y="710" width="50" height="30" as="geometry" />
        </mxCell>
      </root>
    </mxGraphModel>
  </diagram>
</mxfile>
